<svg xmlns="http://www.w3.org/2000/svg" viewBox="0 0 24 24"><symbol id="a" fill="none" viewBox="0 0 24 24"><path fill="currentColor" fill-rule="evenodd" d="M16.92 5.54c-1.612-1.25-3.28-2.546-4.752-4.976a1.172 1.172 0 0 0-1.971-.051c-.115.169-2.65 3.996-1.213 10.315a1.877 1.877 0 0 1-1.816-2.225 1.172 1.172 0 0 0-1.986-1.04 9.6 9.6 0 0 0-2.782 6.78C2.4 19.669 6.732 24 12.056 24s9.657-4.332 9.657-9.656c0-5.08-2.329-6.89-4.794-8.804m-6.192 15.567a1.877 1.877 0 0 1 0-2.652l1.326-1.325h.002l1.326 1.325a1.877 1.877 0 0 1-1.326 3.201h-.004c-.5 0-.97-.195-1.323-.549m5.507-.766a4.21 4.21 0 0 0-1.196-3.543l-2.154-2.154a1.17 1.17 0 0 0-.83-.344c-.3 0-.6.114-.83.344l-2.154 2.154a4.21 4.21 0 0 0-1.196 3.541 7.31 7.31 0 0 1-3.131-5.995c0-1.102.242-2.167.702-3.135a4.22 4.22 0 0 0 5.504 1.49c.497-.258.742-.832.585-1.37-.723-2.474-.842-4.824-.353-6.985q.098-.43.21-.791c1.362 1.72 2.792 2.83 4.09 3.838 2.34 1.818 3.887 3.02 3.887 6.953 0 2.48-1.24 4.674-3.134 5.997" clip-rule="evenodd"/></symbol><use href="#a"/></svg>